{"title":"Infinitely.Polar.Bear.2014.WEBRiP.XViD.AC3.5.1.ReLeNTLesS","uid":12489700,"size":1137474827,"categoryP":"video","categoryS":"movies","magnet":"?xt=urn:btih:4f93a82d362d89b737341cdbe619ee9a8af16b60&amp;dn=Infinitely.Polar.Bear.2014.WEBRiP.XViD.AC3.5.1.ReLeNTLesS&amp;tr=udp%3A%2F%2Ftracker.leechers-paradise.org%3A6969&amp;tr=udp%3A%2F%2Fzer0day.ch%3A1337&amp;tr=udp%3A%2F%2Fopen.demonii.com%3A1337&amp;tr=udp%3A%2F%2Ftracker.coppersurfer.tk%3A6969&amp;tr=udp%3A%2F%2Fexodus.desync.com%3A6969","seeders":0,"leechers":0,"uploader":"TvTeam","files":4,"time":1443151018,"description":"------------------------------------------------------------------------\r\n\r  https://www.torrenting.com\r\n\r\nSign up is OPEN - for time being. Come and have fun.\r\n\r\n------------------------------------------------------------------------P0STER\r\n[img]http://i.imgur.com/JUtqVGc.png[/img]\r\n\r\niMDB: http://www.imdb.com/title/tt1969062/\r\n\r\nGeneral\r\nComplete name               : Infinitely.Polar.Bear.2014.WEBRiP.XViD.AC3.5.1.ReLeNTLesS.avi\r\nFormat                      : AVI\r\nFormat/Info                 : Audio Video Interleave\r\nFile size                   : 1.05 GiB\r\nDuration                    : 1h 28mn\r\nOverall bit rate            : 1 702 Kbps\r\n\r\nVideo\r\nID                          : 0\r\nFormat                      : MPEG-4 Visual\r\nFormat profile              : Advanced   \r\nFormat settings, BVOP       : 1\r\nFormat settings, QPel       : No\r\nFormat settings, GMC        : No warppoints\r\nFormat settings, Matrix     : Default (H.263)\r\nMuxing mode                 : Packed bitstream\r\nCodec ID                    : XVID\r\nCodec ID/Hint               : XviD\r\nDuration                    : 1h 28mn\r\nBit rate                    : 1 503 Kbps\r\nWidth                       : 720 pixels\r\nHeight                      : 384 pixels\r\nDisplay aspect ratio        : 1.85:1\r\nFrame rate                  : 23.976 fps\r\nColor space                 : YUV\r\nChroma subsampling          : 4:2:0\r\nBit depth                   : 8 bits\r\nScan type                   : Progressive\r\nCompression mode            : Lossy\r\nBits/(Pixel*Frame)          : 0.227\r\nStream size                 : 947 MiB (88%)\r\nWriting library             : XviD 1.2.1 (UTC 2008-12-04)\r\n\r\nAudio\r\nID                          : 1\r\nFormat                      : AC-3\r\nFormat/Info                 : Audio Coding 3\r\nMode extension              : CM (complete main)\r\nFormat settings, Endianness : Big\r\nCodec ID                    : 2000\r\nDuration                    : 1h 28mn\r\nBit rate mode               : Constant\r\nBit rate                    : 192 Kbps\r\nChannel(s)                  : 6 channels\r\nChannel positions           : Front: L C R, Side: L R, LFE\r\nSampling rate               : 48.0 KHz\r\nCompression mode            : Lossy\r\nStream size                 : 121 MiB (11%)\r\nAlignment                   : Aligned on interleaves\r\nInterleave, duration        : 64 ms (1.53 video frames)\r\nInterleave, preload duratio : 192 ms\r\nTitle                       : Infinitely.Polar.Bear.2014.ReLeNTLesS.audio.5.1.AC3. English_new\r\nSample Included             : Yes\r\nSource                      : FGT 720 WEB-DL Thanks\r\n\r\nPL0T\r\nA manic-depressive mess of a father tries to win back his wife by attempting to take full responsibility of their two young, spirited daughters, who don't make the overwhelming task any easier.\r\n\r\nCAST\r\nDirector: Maya Forbes\r\nWriter: Maya Forbes\r\nStars: Mark Ruffalo, Zoe Saldana, Imogene Wolodarsky\r\n\r\nN0TE\r\nResized, Degrained, sharpened and tweaked colors a touch.\r\n\r\nSCREENS\r\n[img]http://i.imgur.com/tX7NcPE.png[/img]\r\n[img]http://i.imgur.com/JgGEliD.png[/img]\r\n[img]http://i.imgur.com/SIMo3p2.png[/img]\r\n[img]http://i.imgur.com/syAxkAO.png[/img]\r\n[img]http://i.imgur.com/2NiVPsU.png[/img]\r\n[img]http://i.imgur.com/mSbtJXV.png[/img]\r\n\r\nTRAiLER\r\n\r\nGREETZ\r\n\r\n\r\nHIVE-CM8, Blackjesus, M0RPH, M00SE, MiLLENiUM,\r\n\r\nMANiX, TiTAN, Anonymous, TuX, \r\n\r\nACAB, KingStoner, FooKas, 4PlayHD, \r\n\r\nGodFather, Cld.... \r\n\r\nKeep up the good work guyz","torrent":{"xt":"urn:btih:4f93a82d362d89b737341cdbe619ee9a8af16b60","amp;dn":"Infinitely.Polar.Bear.2014.WEBRiP.XViD.AC3.5.1.ReLeNTLesS","amp;tr":["udp%3A%2F%2Ftracker.leechers-paradise.org%3A6969","udp%3A%2F%2Fzer0day.ch%3A1337","udp%3A%2F%2Fopen.demonii.com%3A1337","udp%3A%2F%2Ftracker.coppersurfer.tk%3A6969","udp%3A%2F%2Fexodus.desync.com%3A6969"],"infoHash":"4f93a82d362d89b737341cdbe619ee9a8af16b60","infoHashBuffer":{"type":"Buffer","data":[79,147,168,45,54,45,137,183,55,52,28,219,230,25,238,154,138,241,107,96]},"announce":[],"urlList":[]}}